<svg width="20" height="20" viewBox="0 0 20 20" fill="none" xmlns="http://www.w3.org/2000/svg">
<path d="M17.5 10.8333V13.3333C17.5 14.2174 17.1488 15.0652 16.5237 15.6904C15.8986 16.3155 15.0507 16.6667 14.1667 16.6667H5.83333C4.94928 16.6667 4.10143 16.3155 3.47631 15.6904C2.85119 15.0652 2.5 14.2174 2.5 13.3333V11.3333C2.5 11.2007 2.55268 11.0735 2.64645 10.9798C2.74021 10.886 2.86739 10.8333 3 10.8333H17.5ZM17.5 10.8333V5.83333C17.5 4.94928 17.1488 4.10143 16.5237 3.47631C15.8986 2.85119 15.0507 2.5 14.1667 2.5H10M13.3333 16.6667L14.1667 18.3333M6.66667 16.6667L5.83333 18.3333" stroke="#85818B" stroke-width="1.5" stroke-linecap="round" stroke-linejoin="round"/>
<path d="M12.8314 6.66667H7.16471C6.88888 6.66667 6.66805 6.44333 6.69805 6.16833C6.81971 5.0625 7.38388 2.5 9.99805 2.5C12.6122 2.5 13.1764 5.0625 13.298 6.16833C13.328 6.44333 13.1072 6.66667 12.8314 6.66667Z" stroke="#85818B" stroke-width="1.5" stroke-linecap="round" stroke-linejoin="round"/>
</svg>
