<svg width="20" height="20" viewBox="0 0 20 20" fill="none" xmlns="http://www.w3.org/2000/svg">
<path d="M1.66406 16.6673V10.0007C1.66406 9.55862 1.83966 9.1347 2.15222 8.82214C2.46478 8.50958 2.8887 8.33398 3.33073 8.33398M3.33073 8.33398H16.6641M3.33073 8.33398V5.00065C3.33073 4.55862 3.50632 4.1347 3.81888 3.82214C4.13145 3.50958 4.55537 3.33398 4.9974 3.33398H14.9974C15.4394 3.33398 15.8633 3.50958 16.1759 3.82214C16.4885 4.1347 16.6641 4.55862 16.6641 5.00065V8.33398M16.6641 8.33398C17.1061 8.33398 17.53 8.50958 17.8426 8.82214C18.1551 9.1347 18.3307 9.55862 18.3307 10.0007V16.6673M9.9974 3.33398V8.33398M1.66406 15.0007H18.3307" stroke="#85818B" stroke-width="1.5" stroke-linecap="round" stroke-linejoin="round"/>
</svg>
