<svg width="22" height="20" viewBox="0 0 22 20" fill="none" xmlns="http://www.w3.org/2000/svg">
<path d="M12.4977 19V11.5C12.4977 11.3011 12.5767 11.1103 12.7173 10.9697C12.858 10.829 13.0488 10.75 13.2477 10.75H16.2477C16.4466 10.75 16.6373 10.829 16.778 10.9697C16.9187 11.1103 16.9977 11.3011 16.9977 11.5V19M12.4977 19H1.35767M12.4977 19H16.9977M16.9977 19H20.6377M19.2477 19V7.349M19.2477 7.349C18.6478 7.6951 17.9466 7.82304 17.2631 7.71113C16.5796 7.59922 15.9559 7.25435 15.4977 6.735C14.9477 7.357 14.1437 7.75 13.2477 7.75C12.8219 7.75041 12.401 7.66 12.013 7.48479C11.625 7.30959 11.2789 7.05363 10.9977 6.734C10.4477 7.357 9.64367 7.75 8.74767 7.75C8.32195 7.75041 7.90104 7.66 7.51304 7.48479C7.12504 7.30959 6.77888 7.05363 6.49767 6.734C6.03959 7.25351 5.41591 7.59858 4.73242 7.71067C4.04892 7.82276 3.34769 7.69498 2.74767 7.349M19.2477 7.349C19.6463 7.11891 19.9866 6.80019 20.2423 6.41751C20.498 6.03484 20.6622 5.59846 20.7222 5.14215C20.7823 4.68584 20.7365 4.22184 20.5885 3.78605C20.4405 3.35026 20.1942 2.95436 19.8687 2.629L18.6787 1.44C18.3976 1.15862 18.0164 1.00035 17.6187 1H4.37567C3.97812 1.00008 3.59687 1.15798 3.31567 1.439L2.12667 2.629C1.80191 2.95474 1.55629 3.3507 1.40874 3.78637C1.26119 4.22204 1.21567 4.68577 1.27567 5.14182C1.33567 5.59786 1.49959 6.03403 1.75481 6.41671C2.01002 6.79939 2.34971 7.11835 2.74767 7.349M2.74767 19V7.349M5.74767 16H9.49767C9.69658 16 9.88735 15.921 10.028 15.7803C10.1687 15.6397 10.2477 15.4489 10.2477 15.25V11.5C10.2477 11.3011 10.1687 11.1103 10.028 10.9697C9.88735 10.829 9.69658 10.75 9.49767 10.75H5.74767C5.54876 10.75 5.35799 10.829 5.21734 10.9697C5.07669 11.1103 4.99767 11.3011 4.99767 11.5V15.25C4.99767 15.664 5.33367 16 5.74767 16Z" stroke="#4F4D4F" stroke-width="1.75" stroke-linecap="round" stroke-linejoin="round"/>
</svg>
