<svg width="80" height="80" viewBox="0 0 80 80" fill="none" xmlns="http://www.w3.org/2000/svg">
<path d="M76.1979 32.13C72.5046 29.1992 70.6215 24.6533 71.1609 19.9685C71.5134 16.904 70.465 13.8957 68.2844 11.7156C66.1029 9.53447 63.0949 8.48605 60.031 8.83914C55.3446 9.37772 50.8005 7.49567 47.8698 3.80234C45.9527 1.38578 43.0844 0 40.0001 0C36.9156 0 34.0473 1.38578 32.13 3.80207C29.1992 7.49513 24.6549 9.37772 19.9696 8.83941C16.9051 8.48551 13.8968 9.53447 11.7159 11.7154C9.53474 13.8957 8.48632 16.904 8.83887 19.969C9.37826 24.653 7.4954 29.1989 3.80126 32.1302C1.38578 34.0475 0 36.9159 0 39.9999C0 43.0838 1.38551 45.9522 3.8018 47.87C7.4954 50.8011 9.37826 55.3467 8.83887 60.0315C8.48632 63.096 9.53474 66.1043 11.7154 68.2844C13.8968 70.4655 16.9073 71.5145 19.9687 71.1609C24.6533 70.6217 29.1992 72.5043 32.13 76.1977C34.047 78.614 36.9154 80 40.0001 80C43.0844 80 45.9527 78.6142 47.87 76.1979C50.8011 72.5049 55.3454 70.6225 60.0304 71.1606C63.0951 71.5129 66.1032 70.4655 68.2841 68.2846C70.4653 66.1043 71.5137 63.096 71.1611 60.0313C70.6217 55.347 72.5049 50.8008 76.1987 47.8698C78.6142 45.9525 80 43.0841 80 39.9999C80 36.9156 78.6139 34.0475 76.1979 32.13Z" fill="#340A43"/>
<path d="M45.7873 32.721C41.8972 26.9979 36.7016 23.9561 33.9807 25.8199C33.6811 26.0308 33.4207 26.2927 33.2114 26.5935C33.2114 26.6155 26.9125 39.3627 26.9125 39.3627L23.3961 41.7451C22.8562 42.1116 22.3939 42.5808 22.0354 43.126C21.677 43.6712 21.4295 44.2816 21.307 44.9225C21.1846 45.5634 21.1896 46.2221 21.3217 46.861C21.4539 47.4999 21.7107 48.1066 22.0774 48.6462L22.2356 48.8792C22.9768 49.9589 24.1138 50.7028 25.3999 50.9497C26.6861 51.1966 28.0177 50.9264 29.106 50.1979L34.7543 58.5188C35.5851 59.5429 37.1807 60.5627 39.1499 59.3627C39.4988 59.1365 39.7964 58.8397 40.0235 58.4914C40.2506 58.1432 40.4022 57.7512 40.4686 57.3407C40.5481 56.9325 40.546 56.5125 40.4622 56.1051C40.3785 55.6977 40.2148 55.3109 39.9807 54.9671L35.0049 47.6264C35.0049 47.6264 46.7675 46.6902 46.8114 46.6726C47.1787 46.5957 47.5269 46.4463 47.8356 46.233C49.2334 45.2836 49.7345 43.2924 49.251 40.6242C48.8158 38.1671 47.5807 35.3847 45.7873 32.721ZM23.5147 48.0133L23.3565 47.7803C23.1035 47.4078 22.9265 46.9891 22.8355 46.5482C22.7445 46.1072 22.7414 45.6526 22.8263 45.2104C22.9112 44.7683 23.0825 44.3472 23.3304 43.9713C23.5783 43.5954 23.8978 43.2721 24.2708 43.0199L27.3081 40.9539L31.3169 46.8572L28.2796 48.9232C27.907 49.1765 27.4882 49.3539 27.0471 49.4453C26.6059 49.5366 26.1511 49.5402 25.7086 49.4557C25.2661 49.3712 24.8446 49.2003 24.4681 48.9528C24.0917 48.7053 23.7677 48.386 23.5147 48.0133ZM38.7147 55.833C38.955 56.1905 39.0436 56.6287 38.9612 57.0514C38.8788 57.4741 38.6321 57.8469 38.2752 58.088C37.917 58.3285 37.4782 58.4172 37.0547 58.3348C36.6313 58.2524 36.2577 58.0056 36.0158 57.6484L30.3851 49.3539L32.6488 47.8155L33.2466 47.7671L38.7147 55.833ZM32.7719 46.2594L28.4027 39.8242L32.5697 31.3275C32.9741 33.7144 34.1565 36.5495 36.0466 39.3319C37.9367 42.1144 40.1345 44.2594 42.2005 45.5166L32.7719 46.2594ZM45.7389 45.2352C43.6378 45.099 40.218 42.7297 37.3213 38.4616C34.4246 34.1935 33.484 30.1539 34.1301 28.1451C34.2468 27.7681 34.4797 27.4375 34.7954 27.2007C35.1112 26.9639 35.4937 26.8329 35.8884 26.8264C37.9719 26.8264 41.5191 29.2089 44.4994 33.6001C46.1785 36.0704 47.4005 38.655 47.7345 40.9144C48.3895 45.2352 45.7389 45.2352 45.7389 45.2352Z" fill="#C6EB75"/>
<path d="M40.2946 32.8834C39.7561 32.7777 39.202 32.7803 38.6647 32.8913C38.1273 33.0022 37.6174 33.2192 37.1649 33.5295C37.0815 33.5873 37.0103 33.6609 36.9553 33.7461C36.9003 33.8314 36.8627 33.9266 36.8445 34.0264C36.8264 34.1262 36.828 34.2286 36.8494 34.3277C36.8708 34.4269 36.9116 34.5209 36.9693 34.6043C37.027 34.6877 37.1006 34.7589 37.1859 34.8139C37.2711 34.8688 37.3663 34.9065 37.4661 34.9247C37.5659 34.9428 37.6683 34.9411 37.7675 34.9197C37.8666 34.8983 37.9606 34.8576 38.044 34.7999C38.3306 34.6053 38.6527 34.4692 38.992 34.3991C39.3312 34.3291 39.6809 34.3265 40.0211 34.3916C40.3613 34.4567 40.6854 34.5882 40.9748 34.7786C41.2642 34.9689 41.5132 35.2144 41.7078 35.501C41.9023 35.7876 42.0385 36.1097 42.1085 36.4489C42.1786 36.7881 42.1811 37.1378 42.116 37.478C42.0509 37.8183 41.9194 38.1423 41.7291 38.4317C41.5387 38.7211 41.2933 38.9702 41.0067 39.1647C40.8715 39.258 40.7698 39.3922 40.7164 39.5474C40.6629 39.7027 40.6606 39.8711 40.7098 40.0278C40.7589 40.1845 40.8569 40.3214 40.9894 40.4184C41.1219 40.5154 41.282 40.5674 41.4462 40.5669C41.6029 40.5698 41.7566 40.5237 41.8858 40.435C42.5695 39.9719 43.1003 39.3163 43.4111 38.5512C43.7218 37.7861 43.7985 36.946 43.6314 36.1373C43.4643 35.3286 43.0609 34.5877 42.4724 34.0084C41.8838 33.4292 41.1366 33.0376 40.3253 32.8834H40.2946ZM46.7385 27.3713H46.8133C47.0035 27.3712 47.187 27.3006 47.3282 27.1732C47.4695 27.0457 47.5585 26.8704 47.5781 26.6812L48.1715 20.9142C48.185 20.8122 48.1779 20.7085 48.1507 20.6093C48.1234 20.5102 48.0765 20.4174 48.0128 20.3367C47.9491 20.2559 47.8698 20.1888 47.7797 20.1392C47.6896 20.0896 47.5904 20.0586 47.4881 20.048C47.3858 20.0374 47.2823 20.0475 47.184 20.0776C47.0856 20.1077 46.9943 20.1572 46.9154 20.2232C46.8365 20.2892 46.7716 20.3703 46.7246 20.4618C46.6776 20.5533 46.6495 20.6533 46.6418 20.7559L46.0528 26.5273C46.0319 26.7302 46.0924 26.933 46.221 27.0913C46.3496 27.2495 46.5357 27.3502 46.7385 27.3713ZM56.6814 26.1845C56.5684 26.0142 56.3927 25.8956 56.1926 25.8544C55.9925 25.8132 55.7842 25.8529 55.6133 25.9647L50.255 29.4812C50.1159 29.5731 50.0104 29.7077 49.9543 29.8647C49.8983 30.0217 49.8949 30.1927 49.9444 30.3519C49.994 30.5111 50.094 30.6498 50.2293 30.7473C50.3646 30.8447 50.5279 30.8956 50.6946 30.8922C50.8501 30.8958 51.0031 30.8529 51.1341 30.7691L56.4924 27.2526C56.6586 27.1357 56.7718 26.9577 56.8072 26.7575C56.8426 26.5574 56.7974 26.3514 56.6814 26.1845ZM58.3209 35.5735L52.088 34.4526C51.8869 34.4165 51.6797 34.4617 51.5119 34.5784C51.3442 34.695 51.2296 34.8735 51.1935 35.0746C51.1573 35.2757 51.2026 35.4829 51.3192 35.6507C51.4358 35.8184 51.6144 35.933 51.8154 35.9691L58.044 37.09H58.1803C58.3763 37.0957 58.5671 37.0264 58.7136 36.8962C58.8602 36.7659 58.9516 36.5846 58.969 36.3893C58.9864 36.194 58.9285 35.9995 58.8073 35.8454C58.686 35.6913 58.5105 35.5893 58.3165 35.5603L58.3209 35.5735Z" fill="#C6EB75"/>
</svg>
