<svg width="20" height="20" viewBox="0 0 20 20" fill="none" xmlns="http://www.w3.org/2000/svg">
<g clip-path="url(#clip0_4951_2380)">
<path d="M19.2276 7.7828C19.1865 7.69878 19.1226 7.62798 19.0432 7.57845C18.9638 7.52892 18.8722 7.50264 18.7786 7.5026H16.991C16.8584 7.5026 16.7312 7.55528 16.6374 7.64905C16.5437 7.74281 16.491 7.86999 16.491 8.0026V9.0618H15.7796V8.0002C15.7796 7.868 15.7273 7.74119 15.634 7.64749C15.5408 7.55379 15.4142 7.50083 15.282 7.5002L14.1802 7.495L13.4932 5.9372C13.4541 5.8485 13.39 5.77309 13.3088 5.72015C13.2276 5.66721 13.1327 5.63901 13.0358 5.639H10.3508V4.3584H11.762C11.8277 4.3584 11.8927 4.34547 11.9533 4.32034C12.014 4.29521 12.0691 4.25838 12.1156 4.21195C12.162 4.16552 12.1988 4.1104 12.2239 4.04974C12.2491 3.98908 12.262 3.92406 12.262 3.8584C12.262 3.79274 12.2491 3.72772 12.2239 3.66706C12.1988 3.60639 12.162 3.55127 12.1156 3.50485C12.0691 3.45842 12.014 3.42159 11.9533 3.39646C11.8927 3.37133 11.8277 3.3584 11.762 3.3584H5.829C5.76334 3.3584 5.69832 3.37133 5.63766 3.39646C5.577 3.42159 5.52188 3.45842 5.47545 3.50485C5.42902 3.55127 5.39219 3.60639 5.36706 3.66706C5.34193 3.72772 5.329 3.79274 5.329 3.8584C5.329 3.92406 5.34193 3.98908 5.36706 4.04974C5.39219 4.1104 5.42902 4.16552 5.47545 4.21195C5.52188 4.25838 5.577 4.29521 5.63766 4.32034C5.69832 4.34547 5.76334 4.3584 5.829 4.3584H7.5538V5.639H5.2016C5.11301 5.639 5.02602 5.66254 4.94951 5.7072C4.87301 5.75187 4.80975 5.81606 4.7662 5.8932L4.2632 6.7846H3.9206C3.0144 6.7846 2.2772 7.5218 2.2772 8.428V9.5182H1.1228C1.0802 9.5182 1.0396 9.5252 1 9.5352V6.852C1 6.71939 0.947322 6.59221 0.853553 6.49845C0.759785 6.40468 0.632608 6.352 0.5 6.352C0.367392 6.352 0.240215 6.40468 0.146447 6.49845C0.0526784 6.59221 0 6.71939 0 6.852L0 13.013C0 13.1456 0.0526784 13.2728 0.146447 13.3666C0.240215 13.4603 0.367392 13.513 0.5 13.513C0.632608 13.513 0.759785 13.4603 0.853553 13.3666C0.947322 13.2728 1 13.1456 1 13.013V10.501C1.0394 10.511 1.0802 10.518 1.1228 10.518H2.277V12.9418C2.277 13.8598 3.0238 14.6064 3.9418 14.6064H5.546L7.4342 16.4944C7.48063 16.5408 7.53575 16.5777 7.59643 16.6028C7.6571 16.6279 7.72213 16.6408 7.7878 16.6408H15.2798C15.4124 16.6408 15.5396 16.5881 15.6334 16.4944C15.7271 16.4006 15.7798 16.2734 15.7798 16.1408V14.7006L16.4912 14.6992V15.6434C16.4912 15.7759 16.5438 15.9029 16.6374 15.9967C16.731 16.0904 16.8579 16.1432 16.9904 16.1434L18.816 16.1466H18.8168C18.91 16.1466 19.0013 16.1206 19.0804 16.0714C19.1596 16.0223 19.2234 15.9521 19.2648 15.8686C19.2948 15.8078 20.0002 14.3546 20.0002 11.7572C20 9.3876 19.2592 7.847 19.2276 7.7828ZM8.5538 4.3584H9.3508V5.639H8.5538V4.3584ZM18.4806 15.146L17.491 15.1442V14.1984C17.491 14.0658 17.4383 13.9386 17.3446 13.8448C17.2508 13.7511 17.1236 13.6984 16.991 13.6984H16.9902L15.2788 13.7014C15.1463 13.7016 15.0194 13.7544 14.9258 13.8481C14.8322 13.9419 14.7796 14.0689 14.7796 14.2014V15.6408H7.9948L6.1066 13.7528C6.06017 13.7064 6.00505 13.6695 5.94437 13.6444C5.8837 13.6193 5.81867 13.6064 5.753 13.6064H3.9418C3.76557 13.6062 3.5966 13.5362 3.47196 13.4116C3.34733 13.287 3.27721 13.118 3.277 12.9418V8.428C3.27716 8.25741 3.345 8.09385 3.46562 7.97322C3.58625 7.85259 3.74981 7.78476 3.9204 7.7846H4.555C4.64359 7.7846 4.73058 7.76106 4.80709 7.71639C4.88359 7.67173 4.94685 7.60754 4.9904 7.5304L5.4934 6.639H12.71L13.3962 8.195C13.4351 8.28337 13.4988 8.35859 13.5795 8.41154C13.6603 8.4645 13.7546 8.49293 13.8512 8.4934L14.7798 8.4978V9.5618C14.7798 9.69441 14.8325 9.82158 14.9262 9.91535C15.02 10.0091 15.1472 10.0618 15.2798 10.0618H16.9912C17.1238 10.0618 17.251 10.0091 17.3448 9.91535C17.4385 9.82158 17.4912 9.69441 17.4912 9.5618V8.5026H18.446C18.6378 9.0098 19 10.1764 19 11.7574C19 13.4788 18.662 14.6444 18.4806 15.146Z" fill="#85818B"/>
</g>
<defs>
<clipPath id="clip0_4951_2380">
<rect width="20" height="20" fill="white"/>
</clipPath>
</defs>
</svg>
