<svg width="24" height="24" viewBox="0 0 24 24" fill="none" xmlns="http://www.w3.org/2000/svg">
<path d="M7.498 15.25H4.372C3.346 15.25 2.427 14.556 2.318 13.535C2.27263 13.1082 2.24993 12.6792 2.25 12.25C2.25 9.402 3.242 6.786 4.899 4.729C5.287 4.247 5.886 4 6.504 4H10.52C11.0036 3.99971 11.4841 4.07737 11.943 4.23L15.057 5.27C15.5159 5.42263 15.9964 5.5003 16.48 5.5H17.774M7.498 15.25C8.116 15.25 8.489 15.974 8.223 16.532C7.74528 17.5374 7.49826 18.6369 7.5 19.75C7.5 20.3467 7.73705 20.919 8.15901 21.341C8.58097 21.7629 9.15326 22 9.75 22C9.94891 22 10.1397 21.921 10.2803 21.7803C10.421 21.6397 10.5 21.4489 10.5 21.25V20.617C10.5 20.044 10.61 19.477 10.822 18.945C11.126 18.185 11.752 17.615 12.475 17.23C13.5849 16.6377 14.5591 15.8203 15.335 14.83C15.833 14.196 16.561 13.75 17.367 13.75H17.751M7.498 15.25H9.7M17.774 5.5C17.784 5.55 17.802 5.6 17.825 5.648C18.418 6.848 18.75 8.198 18.75 9.625C18.75 11.112 18.39 12.515 17.751 13.75M17.774 5.5C17.698 5.135 17.957 4.75 18.349 4.75H19.257C20.146 4.75 20.97 5.268 21.229 6.118C21.568 7.228 21.75 8.405 21.75 9.625C21.75 11.178 21.455 12.661 20.919 14.023C20.613 14.797 19.833 15.25 19.001 15.25H17.948C17.476 15.25 17.203 14.694 17.448 14.29C17.5552 14.1135 17.6563 13.9334 17.751 13.75" stroke="#928E99" stroke-linecap="round" stroke-linejoin="round"/>
</svg>

