<svg width="22" height="22" viewBox="0 0 22 22" fill="none" xmlns="http://www.w3.org/2000/svg">
<g clip-path="url(#clip0_6977_6885)">
<path d="M18.2446 19.3044H17.3242V19.1296C17.5543 13.0736 19.487 11.7944 19.7079 11.6655L20.1681 12.4662C20.1681 12.4662 18.4562 13.6167 18.2537 19.1479V19.3044H18.2446Z" fill="black"/>
<path d="M16.0086 19.3044H15.0882V19.148C15.0146 15.6507 13.404 13.5891 13.3672 13.5523L14.0851 12.9725C14.1311 13.0369 14.941 14.0401 15.4932 15.8256C15.9258 13.7272 16.837 11.0305 18.7421 8.99658L19.4139 9.62243C16.165 13.1014 16.0178 18.8719 16.0086 19.1112V19.3044Z" fill="black"/>
<path d="M10.9277 19.3691C10.8817 19.0838 10.8633 18.8077 10.8633 18.5408C10.8633 16.3503 12.1242 14.5281 12.1793 14.436L12.934 14.9606C12.934 14.9606 11.7836 16.6448 11.7836 18.5408C11.7836 18.7617 11.802 18.9918 11.8389 19.2219L10.9277 19.3599V19.3691Z" fill="black"/>
<path d="M9.45555 19.3044H8.53516V19.1296C8.53516 18.8259 8.76525 12.0153 11.6919 8.20508L12.419 8.76649C9.67638 12.3282 9.45555 19.0744 9.45555 19.1388V19.2953V19.3044Z" fill="black"/>
<path d="M7.20024 19.3042H6.27989V19.1386C6.20626 14.3252 3.88699 10.561 3.85938 10.5241L4.64167 10.0364C4.7153 10.1468 5.90255 12.0887 6.63883 14.9878C7.05298 12.1715 7.95492 8.46255 9.88762 5.68311L10.6423 6.20771C7.29227 11.0119 7.20024 19.065 7.20024 19.1386V19.3042Z" fill="black"/>
<path d="M4.29856 19.3688L3.38742 19.2399C3.38742 19.2399 3.43344 18.881 3.43344 18.3011C3.43344 17.0587 3.21255 14.7854 1.83203 12.6411L2.60512 12.144C4.10529 14.4725 4.35378 16.9022 4.35378 18.2644C4.35378 18.9086 4.29856 19.3136 4.28936 19.3688H4.29856Z" fill="black"/>
</g>
<defs>
<clipPath id="clip0_6977_6885">
<rect width="22" height="22" fill="white"/>
</clipPath>
</defs>
</svg>
