<svg width="20" height="20" viewBox="0 0 20 20" fill="none" xmlns="http://www.w3.org/2000/svg">
<path d="M17.3779 4.28875L13.2113 0.12207C13.1331 0.0439453 13.0273 0 12.9166 0H4.16664C3.24789 0 2.5 0.747461 2.5 1.66668V18.3334C2.5 19.2525 3.24789 20 4.16668 20H15.8334C16.7521 20 17.5 19.2525 17.5 18.3333V4.58332C17.5 4.47266 17.4561 4.36688 17.3779 4.28875ZM13.3333 1.42254L16.0775 4.16668H14.1666C13.7068 4.16668 13.3333 3.79273 13.3333 3.33336V1.42254ZM16.6667 18.3333C16.6667 18.7927 16.2931 19.1666 15.8334 19.1666H4.16668C3.70687 19.1666 3.33336 18.7927 3.33336 18.3333V1.66668C3.33336 1.2073 3.70691 0.833359 4.16668 0.833359H12.5V3.33336C12.5 4.25254 13.2479 5 14.1667 5H16.6667V18.3333Z" fill="#85818B"/>
<path d="M14.5833 11.667H8.75C8.69527 11.667 8.64107 11.6777 8.5905 11.6987C8.53993 11.7196 8.49398 11.7503 8.45528 11.789C8.41658 11.8277 8.38589 11.8736 8.36496 11.9242C8.34404 11.9748 8.33328 12.029 8.33332 12.0837C8.33328 12.1384 8.34404 12.1926 8.36496 12.2432C8.38589 12.2938 8.41658 12.3397 8.45528 12.3784C8.49398 12.4171 8.53993 12.4478 8.5905 12.4687C8.64107 12.4897 8.69527 12.5004 8.75 12.5004H14.5833C14.6381 12.5004 14.6923 12.4897 14.7428 12.4687C14.7934 12.4478 14.8393 12.4171 14.878 12.3784C14.9167 12.3397 14.9474 12.2938 14.9684 12.2432C14.9893 12.1926 15 12.1384 15 12.0837C15 12.029 14.9893 11.9748 14.9684 11.9242C14.9474 11.8736 14.9167 11.8277 14.878 11.789C14.8393 11.7503 14.7934 11.7196 14.7428 11.6987C14.6923 11.6777 14.6381 11.667 14.5833 11.667ZM5.41668 5.00035H10.4167C10.4714 5.00039 10.5256 4.98963 10.5762 4.96871C10.6267 4.94778 10.6727 4.91709 10.7114 4.87839C10.7501 4.83969 10.7808 4.79374 10.8017 4.74317C10.8226 4.6926 10.8334 4.6384 10.8334 4.58367C10.8334 4.52894 10.8226 4.47474 10.8017 4.42417C10.7808 4.3736 10.7501 4.32765 10.7114 4.28895C10.6727 4.25026 10.6267 4.21956 10.5762 4.19864C10.5256 4.17771 10.4714 4.16696 10.4167 4.16699H5.41668C5.36195 4.16696 5.30775 4.17771 5.25718 4.19864C5.20661 4.21956 5.16066 4.25026 5.12196 4.28895C5.08326 4.32765 5.05257 4.3736 5.03164 4.42417C5.01072 4.47474 4.99996 4.52894 5 4.58367C4.99996 4.6384 5.01072 4.6926 5.03164 4.74317C5.05257 4.79374 5.08326 4.83969 5.12196 4.87839C5.16066 4.91709 5.20661 4.94778 5.25718 4.96871C5.30775 4.98963 5.36195 5.00039 5.41668 5.00035ZM14.5833 9.16703H5.41668C5.36195 9.167 5.30775 9.17775 5.25718 9.19868C5.20661 9.2196 5.16066 9.25029 5.12196 9.28899C5.08326 9.32769 5.05257 9.37364 5.03164 9.42421C5.01072 9.47478 4.99996 9.52898 5 9.58371C4.99996 9.63844 5.01072 9.69264 5.03164 9.74321C5.05257 9.79378 5.08326 9.83973 5.12196 9.87843C5.16066 9.91713 5.20661 9.94782 5.25718 9.96875C5.30775 9.98967 5.36195 10.0004 5.41668 10.0004H14.5834C14.6381 10.0004 14.6923 9.98967 14.7429 9.96875C14.7934 9.94782 14.8394 9.91713 14.8781 9.87843C14.9168 9.83973 14.9475 9.79378 14.9684 9.74321C14.9893 9.69264 15.0001 9.63844 15 9.58371C15.0001 9.52898 14.9893 9.47478 14.9684 9.42421C14.9474 9.37365 14.9167 9.3277 14.878 9.289C14.8393 9.25031 14.7934 9.21961 14.7428 9.19869C14.6923 9.17776 14.6381 9.167 14.5833 9.16703ZM5 7.08367C4.99996 7.1384 5.01072 7.1926 5.03164 7.24317C5.05257 7.29374 5.08326 7.33969 5.12196 7.37839C5.16066 7.41709 5.20661 7.44778 5.25718 7.46871C5.30775 7.48963 5.36195 7.50039 5.41668 7.50035H14.5834C14.6381 7.50039 14.6923 7.48963 14.7429 7.46871C14.7934 7.44778 14.8394 7.41709 14.8781 7.37839C14.9168 7.33969 14.9475 7.29374 14.9684 7.24317C14.9893 7.1926 15.0001 7.1384 15 7.08367C15.0001 7.02894 14.9893 6.97474 14.9684 6.92417C14.9475 6.8736 14.9168 6.82765 14.8781 6.78895C14.8394 6.75026 14.7934 6.71956 14.7429 6.69864C14.6923 6.67771 14.6381 6.66696 14.5834 6.66699H5.41668C5.36195 6.66697 5.30776 6.67773 5.25719 6.69866C5.20663 6.71959 5.16068 6.75028 5.12199 6.78898C5.08329 6.82768 5.0526 6.87362 5.03167 6.92419C5.01073 6.97475 4.99997 7.02895 5 7.08367ZM10.9579 15.12C10.345 15.723 9.57277 16.4025 9.26676 16.6093C9.19434 16.4453 9.11215 16.171 9.0625 16.0046C8.89324 15.4435 8.76059 15.0004 8.33332 15.0004C7.96793 15.0004 7.80352 15.3344 7.55449 15.8398C7.43242 16.0872 7.17934 16.6023 7.08738 16.667C6.99703 16.6577 6.84242 16.5523 6.67234 16.3936C7.13137 15.8007 7.5 15.1143 7.5 14.5837C7.5 13.673 6.7334 13.3337 6.25 13.3337C5.75848 13.3337 5 14.0494 5 15.0004C5 15.4219 5.23355 15.9427 5.56477 16.3997C5.43293 16.5315 5.29863 16.6512 5.1668 16.7504C4.98289 16.8884 4.94543 17.1496 5.08297 17.3335C5.11578 17.3773 5.15692 17.4143 5.20401 17.4422C5.2511 17.4701 5.30324 17.4884 5.35743 17.4962C5.41163 17.5039 5.46681 17.5009 5.51984 17.4873C5.57287 17.4737 5.6227 17.4498 5.66648 17.417C5.81055 17.3091 5.96516 17.1736 6.12059 17.019C6.44691 17.3095 6.79359 17.5004 7.08332 17.5004C7.64648 17.5004 7.98094 16.8595 8.27148 16.2699C8.46356 16.9063 8.6491 17.5004 9.16668 17.5004C9.30586 17.5004 9.7282 17.5004 11.5422 15.7141C11.7066 15.5525 11.7082 15.2889 11.5471 15.1249C11.3859 14.9601 11.1222 14.9593 10.9579 15.12ZM6.12305 15.7393C5.95379 15.4813 5.83332 15.2136 5.83332 15.0004C5.83332 14.4921 6.20605 14.1947 6.25 14.167C6.31918 14.167 6.66668 14.187 6.66668 14.5837C6.66668 14.8494 6.44207 15.2978 6.12305 15.7393Z" fill="#85818B"/>
</svg>
