<svg width="22" height="22" viewBox="0 0 22 22" fill="none" xmlns="http://www.w3.org/2000/svg">
<path d="M20.4349 12.3016V11.3768H19.1574C19.1192 10.7952 19.0144 10.2232 18.8428 9.68927L19.9011 9.24121L19.5483 8.39273L18.4996 8.83128C18.2231 8.25926 17.8799 7.72537 17.47 7.24869L18.3661 6.34298L17.7178 5.68515L16.8121 6.58132C16.3449 6.15231 15.8015 5.79955 15.22 5.51355L15.6395 4.49344L14.791 4.14069L14.3715 5.15127C13.7995 4.96059 13.1893 4.83665 12.5697 4.79852V3.521H11.6448V4.79852C10.968 4.83665 10.3197 4.97013 9.70947 5.19894L9.26141 4.15022L8.41292 4.50298L8.861 5.57075C8.58452 5.72329 8.31758 5.87583 8.0697 6.05696L8.73706 6.70526C9.70947 6.06651 10.8631 5.69469 12.112 5.69469C15.4965 5.69469 18.2612 8.44993 18.2612 11.8439C18.2612 14.3131 16.793 16.525 14.5145 17.4974L14.4763 17.5165C13.7327 17.8311 12.9319 17.9836 12.112 17.9836C8.718 17.9836 5.95322 15.2284 5.95322 11.8344C5.95322 10.6713 6.2869 9.58441 6.85892 8.65014L6.1725 7.99231C6.00089 8.27832 5.82928 8.56433 5.69581 8.86942L4.52316 8.39273L4.17041 9.24121L5.35259 9.72741C5.19052 10.2518 5.09518 10.8048 5.05705 11.3768H3.78906V12.3016H5.05705C5.10472 12.9785 5.23819 13.6172 5.45747 14.2273L4.17041 14.7613L4.52316 15.6098L5.82928 15.0759C6.10575 15.6097 6.45851 16.115 6.85892 16.5536L5.96275 17.4498L6.62058 18.1076L7.51675 17.2019C7.96484 17.5832 8.46059 17.9169 8.98494 18.1743L8.43199 19.5186L9.28047 19.8713L9.83341 18.5366C10.415 18.7272 11.0156 18.8512 11.6544 18.8988V20.1669H12.5792V18.8988C13.1512 18.8607 13.7137 18.7558 14.2571 18.5842L14.791 19.8713L15.6395 19.5186L15.1151 18.2315C15.7157 17.9455 16.2687 17.5832 16.7644 17.1638L17.7274 18.1171L18.3756 17.4593L17.4318 16.5059C17.7941 16.0864 18.1087 15.6193 18.3661 15.1331L19.5483 15.6193L19.9011 14.7708L18.7379 14.2845C18.9667 13.6649 19.1097 12.9975 19.1574 12.3207H20.4445L20.4349 12.3016Z" fill="black"/>
<path d="M12.1099 11.0522C11.6713 11.0522 11.3281 11.405 11.3281 11.834C11.3281 12.2631 11.6809 12.6158 12.1099 12.6158C12.539 12.6158 12.8917 12.2631 12.8917 11.834C12.8917 11.405 12.539 11.0522 12.1099 11.0522Z" fill="black"/>
<path d="M8.96535 9.47951C9.3971 9.47951 9.74709 9.12954 9.74709 8.69778C9.74709 8.26602 9.3971 7.91602 8.96535 7.91602C8.5336 7.91602 8.18359 8.26602 8.18359 8.69778C8.18359 9.12954 8.5336 9.47951 8.96535 9.47951Z" fill="black"/>
<path d="M8.96535 14.1987C8.5268 14.1987 8.18359 14.5516 8.18359 14.9806C8.18359 15.4096 8.53634 15.7623 8.96535 15.7623C9.39435 15.7623 9.74709 15.4096 9.74709 14.9806C9.74709 14.5516 9.39435 14.1987 8.96535 14.1987Z" fill="black"/>
<path d="M15.2584 9.47951C15.6901 9.47951 16.0401 9.12954 16.0401 8.69778C16.0401 8.26602 15.6901 7.91602 15.2584 7.91602C14.8266 7.91602 14.4766 8.26602 14.4766 8.69778C14.4766 9.12954 14.8266 9.47951 15.2584 9.47951Z" fill="black"/>
<path d="M15.2584 14.1987C14.8294 14.1987 14.4766 14.5516 14.4766 14.9806C14.4766 15.4096 14.8294 15.7623 15.2584 15.7623C15.6874 15.7623 16.0401 15.4096 16.0401 14.9806C16.0401 14.5516 15.6874 14.1987 15.2584 14.1987Z" fill="black"/>
<path d="M12.1099 17.335C12.5417 17.335 12.8917 16.9851 12.8917 16.5532C12.8917 16.1215 12.5417 15.7715 12.1099 15.7715C11.6781 15.7715 11.3281 16.1215 11.3281 16.5532C11.3281 16.9851 11.6781 17.335 12.1099 17.335Z" fill="black"/>
<path d="M12.1099 6.34277C11.6713 6.34277 11.3281 6.69552 11.3281 7.12453C11.3281 7.55355 11.6809 7.9063 12.1099 7.9063C12.539 7.9063 12.8917 7.55355 12.8917 7.12453C12.8917 6.69552 12.539 6.34277 12.1099 6.34277Z" fill="black"/>
<path d="M17.6104 11.834C17.6104 11.3954 17.2577 11.0522 16.8286 11.0522C16.3996 11.0522 16.0469 11.405 16.0469 11.834C16.0469 12.2631 16.3996 12.6158 16.8286 12.6158C17.2577 12.6158 17.6104 12.2631 17.6104 11.834Z" fill="black"/>
<path d="M7.40286 11.0522C6.97384 11.0522 6.62109 11.405 6.62109 11.834C6.62109 12.2631 6.97384 12.6158 7.40286 12.6158C7.83188 12.6158 8.18462 12.2631 8.18462 11.834C8.18462 11.405 7.83188 11.0522 7.40286 11.0522Z" fill="black"/>
<path d="M2.54706 4.44573C2.58519 4.62687 2.66147 4.78895 2.7568 4.94149L2.25152 5.44678L2.74727 5.94253L3.25255 5.43724C3.4051 5.53258 3.56717 5.59931 3.7483 5.64699V6.36201H4.4538V5.64699C4.63494 5.60885 4.79702 5.53258 4.94956 5.43724L5.45484 5.94253L5.9506 5.44678L5.44531 4.94149C5.54064 4.78895 5.60739 4.62687 5.65505 4.44573H6.37008V3.74024H5.65505C5.61692 3.5591 5.54064 3.39703 5.44531 3.24448L5.9506 2.7392L5.45484 2.24345L4.94956 2.74873C4.79702 2.6534 4.63494 2.58666 4.4538 2.53899V1.8335H3.7483V2.54852C3.56717 2.58666 3.4051 2.66293 3.25255 2.75827L2.74727 2.25298L2.25152 2.74873L2.7568 3.25402C2.66147 3.40656 2.59473 3.56864 2.54706 3.74977H1.83203V4.45526H2.54706V4.44573ZM3.20489 4.09299C3.20489 3.60677 3.6053 3.20635 4.09152 3.20635C4.57774 3.20635 4.97816 3.60677 4.97816 4.09299C4.97816 4.57921 4.57774 4.97962 4.09152 4.97962C3.6053 4.97962 3.20489 4.57921 3.20489 4.09299Z" fill="black"/>
</svg>
