<svg width="22" height="22" viewBox="0 0 22 22" fill="none" xmlns="http://www.w3.org/2000/svg">
<path d="M8.95817 14.2814C7.03887 14.2814 5.38847 13.3464 4.63743 12.8331C2.92213 11.6781 1.79095 10.1198 1.83731 8.9556L1.85586 8.58893L2.21746 8.52476C8.64292 7.32393 11.3689 13.1723 11.3967 13.2273L11.5914 13.6489L11.1649 13.8323C10.4138 14.1531 9.67215 14.2814 8.96744 14.2814H8.95817ZM2.81087 9.34976C3.00558 10.0831 3.81223 11.1739 5.15667 12.0723C6.87198 13.2273 8.76346 13.6214 10.3119 13.1539C9.60716 11.9439 7.29849 8.72643 2.81087 9.3406V9.34976Z" fill="black"/>
<path d="M20.1461 8.43321L19.7846 8.36904C16.3446 7.70904 14.0267 8.92821 12.5802 10.3124L13.2107 10.9357C14.4347 9.78988 16.354 8.78154 19.2004 9.20321C19.0057 10.129 18.0321 11.3482 16.7526 12.2007C15.9275 12.7507 13.8505 13.8874 11.5881 13.1265L10.9113 12.4574C10.6609 12.9065 10.5404 13.209 10.5311 13.2182L10.3828 13.6215L10.7815 13.7957C11.5325 14.1257 12.3392 14.2907 13.1643 14.2907C14.5366 14.2907 15.9552 13.8415 17.2718 12.9615C19.0242 11.7974 20.211 10.0832 20.1647 8.79988L20.1461 8.43321Z" fill="black"/>
<path d="M11.4311 13.2642H10.5039V20.1667H11.4311V13.2642Z" fill="black"/>
<path d="M10.1875 6.8566C10.1875 7.25077 10.512 7.5716 10.9107 7.5716C11.3094 7.5716 11.6339 7.25077 11.6339 6.8566C11.6339 6.46244 11.3094 6.1416 10.9107 6.1416C10.512 6.1416 10.1875 6.46244 10.1875 6.8566Z" fill="black"/>
<path d="M12.3672 4.7023C12.3672 5.09647 12.6917 5.4173 13.0903 5.4173C13.4891 5.4173 13.8136 5.09647 13.8136 4.7023C13.8136 4.30814 13.4891 3.9873 13.0903 3.9873C12.6917 3.9873 12.3672 4.30814 12.3672 4.7023Z" fill="black"/>
<path d="M8.01172 4.7023C8.01172 5.09647 8.33624 5.4173 8.73493 5.4173C9.13362 5.4173 9.45815 5.09647 9.45815 4.7023C9.45815 4.30814 9.13362 3.9873 8.73493 3.9873C8.33624 3.9873 8.01172 4.30814 8.01172 4.7023Z" fill="black"/>
<path d="M14.5469 2.5485C14.5469 2.94266 14.8714 3.2635 15.27 3.2635C15.6688 3.2635 15.9933 2.94266 15.9933 2.5485C15.9933 2.15433 15.6688 1.8335 15.27 1.8335C14.8714 1.8335 14.5469 2.15433 14.5469 2.5485Z" fill="black"/>
<path d="M5.82812 2.5485C5.82812 2.94266 6.15264 3.2635 6.55134 3.2635C6.95003 3.2635 7.27455 2.94266 7.27455 2.5485C7.27455 2.15433 6.95931 1.8335 6.55134 1.8335C6.14338 1.8335 5.82812 2.15433 5.82812 2.5485Z" fill="black"/>
<path d="M10.1875 2.5485C10.1875 2.94266 10.512 3.2635 10.9107 3.2635C11.3094 3.2635 11.6339 2.94266 11.6339 2.5485C11.6339 2.15433 11.3094 1.8335 10.9107 1.8335C10.512 1.8335 10.1875 2.15433 10.1875 2.5485Z" fill="black"/>
<path d="M11.4324 13.6768V13.7226L11.4141 13.6768H11.4324Z" fill="black"/>
</svg>
