<svg width="24" height="24" viewBox="0 0 24 24" fill="none" xmlns="http://www.w3.org/2000/svg">
<path fill-rule="evenodd" clip-rule="evenodd" d="M7.91561 3.83958C7.70588 4.0301 7.48361 4.57065 7.7657 5.6968L7.76718 5.70418C8.11425 7.14713 9.16138 9.0457 10.783 10.8682C12.4187 12.6937 14.1799 13.9454 15.5638 14.4424L15.5719 14.4453L15.5801 14.4483C16.5637 14.8234 17.1109 14.7355 17.3612 14.5841L17.4447 14.5103C17.5672 14.401 17.6935 14.1898 17.7208 13.7711C17.7482 13.3472 17.6662 12.7816 17.4373 12.0977C16.9816 10.7338 16.0017 9.0745 14.5765 7.48387C13.1498 5.89249 11.6123 4.73237 10.3104 4.12388C9.65763 3.81964 9.10526 3.67343 8.68139 3.65127C8.26564 3.6306 8.04041 3.73029 7.91561 3.83958ZM11.091 2.45128C12.6691 3.18826 14.3993 4.52044 15.9515 6.25212C17.5045 7.98454 18.6351 9.85801 19.1882 11.5122C19.4643 12.3377 19.6113 13.1523 19.5633 13.89C19.5249 14.4881 19.3528 15.0782 18.9807 15.5589V15.6246L18.6742 15.8993C17.6714 16.8002 16.2122 16.6636 14.9302 16.177C13.166 15.5404 11.1656 14.0613 9.40655 12.0992L9.40507 12.097C7.65641 10.1312 6.41432 7.96977 5.97346 6.14061C5.64116 4.80917 5.68916 3.35737 6.68386 2.46457L6.68755 2.46088C7.27758 1.93657 8.03154 1.77042 8.77517 1.80808C9.51289 1.84501 10.3038 2.08427 11.091 2.45128Z" fill="#4F4D4F"/>
<path fill-rule="evenodd" clip-rule="evenodd" d="M7.28167 2.89877C7.7469 3.10702 7.95589 3.652 7.74764 4.11796L1.97586 17.0535L1.97512 17.055C1.49512 18.1258 2.51419 19.2918 3.6625 18.9351L3.66397 18.9344L17.1748 14.6646C17.2904 14.6281 17.412 14.6147 17.5328 14.6252C17.6536 14.6357 17.7711 14.6699 17.8786 14.7258C17.9862 14.7818 18.0817 14.8583 18.1597 14.9511C18.2376 15.044 18.2965 15.1512 18.3331 15.2668C18.3696 15.3824 18.383 15.5041 18.3725 15.6248C18.3619 15.7456 18.3278 15.8631 18.2718 15.9707C18.2159 16.0782 18.1394 16.1737 18.0465 16.2517C17.9537 16.3297 17.8464 16.3886 17.7308 16.4251L4.21708 20.6956L4.21338 20.6971C1.57266 21.5197 -0.852433 18.848 0.289961 16.3003L6.06174 3.36548C6.11115 3.25478 6.18188 3.15489 6.26989 3.07152C6.35789 2.98816 6.46146 2.92294 6.57468 2.87961C6.68789 2.83627 6.80853 2.81566 6.92971 2.81894C7.05089 2.82223 7.17098 2.84936 7.28167 2.89877Z" fill="#4F4D4F"/>
<path fill-rule="evenodd" clip-rule="evenodd" d="M11.3442 16.6449C11.5778 16.5719 11.8309 16.5946 12.0478 16.7082C12.2647 16.8217 12.4276 17.0168 12.5006 17.2504L13.1527 19.3284C13.6622 20.9457 12.7532 22.6958 11.1345 23.2068L9.05424 23.8589C7.43702 24.3684 5.68687 23.4594 5.1766 21.8407L4.5238 19.759C4.48486 19.6426 4.4695 19.5197 4.47863 19.3973C4.48777 19.2749 4.5212 19.1556 4.57698 19.0463C4.63277 18.9371 4.70978 18.84 4.80352 18.7608C4.89725 18.6816 5.00584 18.6219 5.12291 18.5852C5.23999 18.5485 5.36321 18.5355 5.48538 18.547C5.60754 18.5584 5.72619 18.5941 5.8344 18.652C5.9426 18.7098 6.03818 18.7887 6.11556 18.8839C6.19293 18.9791 6.25054 19.0888 6.28502 19.2066L6.93708 21.2854C7.03966 21.5982 7.26065 21.8583 7.55272 22.0102C7.84479 22.162 8.18471 22.1934 8.49966 22.0977L10.5792 21.4456C10.8918 21.343 11.1518 21.1222 11.3036 20.8302C11.4555 20.5383 11.487 20.1986 11.3915 19.8838L10.7394 17.8021C10.6663 17.5686 10.6889 17.3157 10.8021 17.0988C10.9154 16.882 11.1101 16.719 11.3435 16.6456L11.3442 16.6449ZM22.6692 1.41125C22.7554 1.49649 22.824 1.59787 22.871 1.70962C22.9181 1.82136 22.9426 1.94128 22.9433 2.06252C22.944 2.18376 22.9208 2.30395 22.875 2.41622C22.8293 2.52849 22.7618 2.63064 22.6766 2.71685L21.5932 3.81198C21.508 3.89819 21.4066 3.96677 21.2949 4.0138C21.1831 4.06082 21.0632 4.08538 20.942 4.08607C20.6971 4.08745 20.4618 3.99152 20.2877 3.81936C20.1135 3.64721 20.0149 3.41294 20.0136 3.1681C20.0122 2.92325 20.1081 2.68788 20.2803 2.51377L21.3636 1.41864C21.4488 1.33241 21.5502 1.26382 21.6619 1.21678C21.7737 1.16974 21.8936 1.14518 22.0149 1.14449C22.1361 1.14381 22.2563 1.16701 22.3685 1.21278C22.4808 1.25856 22.583 1.326 22.6692 1.41125ZM16.8147 0.0827686C16.9251 0.132975 17.0245 0.204439 17.1072 0.293076C17.19 0.381713 17.2545 0.485787 17.297 0.599352C17.3395 0.712916 17.3592 0.833745 17.355 0.954935C17.3508 1.07613 17.3228 1.1953 17.2725 1.30565L16.7674 2.41334C16.7182 2.52524 16.6473 2.62626 16.5587 2.71053C16.4702 2.7948 16.3658 2.86064 16.2516 2.90424C16.1374 2.94783 16.0157 2.96831 15.8935 2.96448C15.7713 2.96065 15.6511 2.93259 15.5398 2.88193C15.4286 2.83126 15.3285 2.75901 15.2454 2.66936C15.1623 2.57971 15.0979 2.47445 15.0558 2.35968C15.0137 2.24492 14.9948 2.12293 15.0002 2.00081C15.0057 1.87869 15.0353 1.75887 15.0874 1.6483L15.5925 0.540612C15.6939 0.317874 15.8796 0.144521 16.1088 0.0586657C16.338 -0.02719 16.5919 -0.0185204 16.8147 0.0827686ZM23.8921 7.13356C23.9493 7.24043 23.9849 7.35752 23.9968 7.47815C24.0088 7.59877 23.9969 7.72058 23.9618 7.8366C23.9267 7.95262 23.8691 8.0606 23.7922 8.15436C23.7154 8.24811 23.6208 8.32582 23.514 8.38303L22.4801 8.93687C22.2643 9.05243 22.0114 9.07751 21.7771 9.0066C21.5428 8.9357 21.3462 8.77461 21.2307 8.55878C21.1151 8.34296 21.09 8.09007 21.1609 7.85574C21.2318 7.62142 21.3929 7.42487 21.6087 7.30931L22.6426 6.75547C22.7495 6.69825 22.8665 6.66265 22.9872 6.65068C23.1078 6.63872 23.2296 6.65063 23.3456 6.68574C23.4617 6.72085 23.5696 6.77847 23.6634 6.85531C23.7571 6.93214 23.8348 7.02669 23.8921 7.13356Z" fill="#4F4D4F"/>
</svg>
