<svg width="20" height="20" viewBox="0 0 20 20" fill="none" xmlns="http://www.w3.org/2000/svg">
<path d="M1.26477 11.0584C1.47065 12.7643 2.73535 13.8525 3.88241 15.2937C4.73535 16.3525 5.61771 17.3819 6.52947 18.4114C8.02947 20.0584 8.52947 19.6761 11.3236 18.7937L13.9706 18.1172C14.1471 18.0584 14.2059 17.8231 14.0589 17.7349C12.5295 16.6466 11.1765 14.8525 9.91183 13.2643C10.2059 13.3231 10.5883 13.2937 10.853 13.3231C13.3236 13.3819 15.8824 12.9408 18.2354 11.8525C18.4706 11.7349 18.7648 11.5878 18.7648 11.3231C18.7942 11.1172 18.6177 10.9114 18.4412 10.8231C18.2942 10.7643 18.1471 10.7349 17.9706 10.7349C18.0001 10.529 18.1471 5.61724 18.0589 5.41135C18.0883 5.05841 17.9706 4.67606 17.6471 4.32312C17.1471 3.73488 16.2059 3.38194 15.6765 3.23488C12.2059 2.17606 8.353 2.029 4.50006 2.82312C4.02947 2.91135 3.55888 3.05841 3.29418 3.44076C3.11771 3.70547 3.11771 3.94076 3.08829 3.97018C2.26477 7.029 0.941236 9.08782 1.26477 11.0584ZM13.4118 17.7643L9.61771 18.7055C8.61771 18.9702 8.14712 18.9702 7.44124 18.2643C7.47065 18.2349 7.47065 18.2055 7.50006 18.2055C7.73535 17.6466 8.41182 17.4114 8.91182 17.7055C9.02947 17.7643 9.17653 17.7349 9.23535 17.6172C9.52947 16.9702 10.3824 16.7937 10.9118 17.2643C11.0295 17.3819 11.2354 17.3231 11.2648 17.1466C11.3824 16.7055 11.853 16.4996 12.2648 16.7055C12.6471 17.0878 13.0001 17.4408 13.4118 17.7643ZM5.55888 7.35253V6.32312C6.52947 7.55841 8.67653 7.76429 10.1471 7.88194C11.4412 7.97018 14.6765 8.08782 16.8824 6.82312C17.0589 6.73488 17.3824 6.529 17.6471 6.23488C17.6471 7.38194 17.6177 8.529 17.5589 9.67606C17.5001 10.5584 17.5883 10.7055 17.4412 10.8231C16.9706 11.2349 16.3824 11.5584 15.7648 11.8231L15.9118 8.529C15.9118 8.23488 15.4706 8.20547 15.4706 8.49959L15.3236 11.9996C14.6177 12.2643 13.9118 12.3819 13.1471 12.4702L13.2354 9.88194C13.2354 9.76429 13.1471 9.64665 13.0295 9.64665C12.9118 9.64665 12.7942 9.73488 12.7942 9.85253L12.6765 12.4996C11.853 12.5584 11.0295 12.5584 10.2354 12.4996L10.3236 10.1761C10.3236 10.0584 10.2354 9.94076 10.1177 9.94076C10.0001 9.94076 9.88241 10.029 9.88241 10.1466L9.79418 12.4702C9.61771 12.4702 9.47065 12.4408 9.29418 12.4408H9.26477C8.02947 10.7937 6.76477 9.05841 5.55888 7.35253ZM3.70594 3.70547C3.88241 3.44076 4.29418 3.32312 4.64712 3.26429C8.38241 2.47018 12.1765 2.61723 15.5883 3.64665C17.5295 4.26429 18.4706 5.44076 16.6765 6.44076C14.5589 7.61724 11.4118 7.529 10.1765 7.44076C9.02947 7.35253 7.5883 7.23488 6.50006 6.55841C5.38241 5.88194 5.41182 4.91135 6.26477 4.35253C7.26477 3.73488 8.73535 3.73488 9.91183 3.70547C11.2942 3.70547 12.7059 3.82312 14.0589 4.11724C14.5883 4.23488 15.7059 4.64665 15.8236 5.08782C15.9412 5.47018 15.2059 5.82312 14.7942 5.94076C11.8824 6.70547 10.9118 6.35253 9.38241 6.29371C8.97065 6.26429 8.52947 6.20547 8.08829 6.05841C7.82359 5.97018 7.52947 5.79371 7.50006 5.529C7.47065 5.32312 7.64712 5.11724 7.79418 4.99959C8.00006 4.85253 8.29418 4.79371 8.52947 4.73488C8.64712 4.70547 8.73535 4.58782 8.70594 4.47018C8.67653 4.35253 8.55888 4.26429 8.44124 4.29371C8.14712 4.35253 7.82359 4.44076 7.55888 4.61723C7.20594 4.85253 7.02947 5.20547 7.05888 5.55841C7.17653 6.70547 9.11771 6.70547 10.2354 6.79371C11.5589 6.91135 12.6177 6.97018 14.8824 6.38194C15.5883 6.20547 16.4118 5.67606 16.2059 4.99959C15.9412 4.11724 14.1177 3.73488 14.1177 3.70547C11.8824 3.23488 10.2354 3.29371 9.79418 3.29371C8.58829 3.29371 7.11771 3.32312 6.00006 3.99959C5.52947 4.29371 5.17653 4.76429 5.17653 5.32312C5.11771 5.35253 5.11771 5.41135 5.11771 5.49959V6.76429C3.97065 5.17606 3.76477 4.91135 3.61771 4.529C3.52947 4.20547 3.55888 3.91135 3.70594 3.70547ZM3.32359 4.91135C3.50006 5.26429 3.58829 5.38194 5.00006 7.32312C6.44124 9.32312 9.61771 13.7937 11.7942 16.2055C11.4118 16.2643 11.1177 16.4702 10.9706 16.7643C10.2648 16.3525 9.41182 16.5878 8.94124 17.2349C8.26477 16.9702 7.50006 17.2349 7.14712 17.9408C6.97065 17.7349 6.05888 16.6761 5.61771 16.1761C6.47065 15.6466 7.353 15.1761 8.29418 14.7937C8.41182 14.7349 8.47065 14.6172 8.41182 14.4996C8.353 14.3819 8.23535 14.3231 8.11771 14.3819C7.14712 14.7937 6.20594 15.2643 5.32359 15.8231L3.47065 13.7055C4.38241 13.2937 5.26477 12.7055 5.94124 11.9996C6.02947 11.9114 6.02947 11.7643 5.94124 11.6761C5.853 11.5878 5.70594 11.5878 5.61771 11.6761C4.91182 12.3819 4.05888 12.9702 3.14712 13.3525C2.55888 12.6761 1.97065 12.029 1.76477 11.2643C1.88241 11.1466 2.20594 10.0584 3.41182 8.64665C3.50006 8.55841 3.47065 8.41135 3.38241 8.32312C3.29418 8.23488 3.14712 8.26429 3.05888 8.35253C2.52947 8.99959 2.05888 9.70547 1.67653 10.4702C1.64712 8.99959 2.44124 7.529 3.32359 4.91135Z" fill="#85818B"/>
<path d="M10.6159 5.67615C11.2923 5.85262 12.0276 5.91145 12.7335 5.7938C12.91 5.76439 13.057 5.73498 13.2041 5.61733C13.5864 5.32321 13.4688 4.76439 13.1453 4.88204C13.0276 4.91145 12.9688 5.02909 12.9982 5.14674C13.0864 5.41145 11.7041 5.49968 10.7041 5.23498C10.557 5.20556 10.2335 5.08792 10.2041 4.88204C10.2041 4.76439 10.1159 4.70556 9.9982 4.70556C9.88056 4.73498 9.79232 4.82321 9.82173 4.97027C9.82173 5.17615 9.9982 5.49968 10.6159 5.67615ZM10.6159 17.6467C10.41 17.7056 9.64526 17.882 9.64526 18.1762C9.64526 18.4703 10.557 18.1467 10.7335 18.0879C11.2041 17.9114 11.0864 17.4997 10.6159 17.6467ZM12.1159 16.9409C12.0276 16.9409 11.9394 16.9997 11.9394 17.0879C11.9394 17.1762 11.9982 17.2644 12.0864 17.2644C12.1747 17.2644 12.2629 17.2056 12.2629 17.1173C12.2629 17.0291 12.2041 16.9703 12.1159 16.9409ZM8.32173 17.9703C8.2335 17.9703 8.14526 18.0291 8.14526 18.1173C8.14526 18.2056 8.20409 18.2938 8.29232 18.2938C8.38056 18.2938 8.46879 18.235 8.46879 18.1467C8.46879 18.0585 8.40997 17.9703 8.32173 17.9703ZM8.08644 15.4703C7.96879 15.5291 7.93938 15.6467 7.9982 15.7644C8.17467 16.1173 8.40997 16.4114 8.70409 16.6467C8.7335 16.6762 8.79232 16.7056 8.85115 16.7056C9.05703 16.7056 9.14526 16.4409 8.9982 16.3232C8.76291 16.1467 8.55703 15.882 8.40997 15.5879C8.35115 15.4703 8.20409 15.4114 8.08644 15.4703ZM5.32173 13.1762C5.2335 13.2644 5.2335 13.4114 5.32173 13.4997C5.40997 13.5879 5.55703 13.5879 5.64526 13.4997L5.82173 13.3232C5.82173 13.9114 6.20409 14.2938 6.58644 14.2938C6.93938 14.2938 7.29232 13.9703 7.20409 13.5879C7.17467 13.4703 7.05703 13.382 6.93938 13.4114C6.82173 13.4409 6.7335 13.5585 6.76291 13.6762C6.79232 13.7644 6.64526 13.8526 6.52762 13.8232C6.38056 13.7938 6.26291 13.5879 6.2335 13.4409C6.20409 13.235 6.26291 12.9997 6.32173 12.7644C6.38056 12.5585 6.11585 12.382 5.96879 12.5291L5.32173 13.1762ZM2.93938 10.7056C3.02762 10.9114 3.26291 11.0585 3.4982 11.0879C3.52762 11.5585 3.96879 11.8232 4.38056 11.6173C4.55703 11.5291 4.70409 11.3526 4.7335 11.1762C4.76291 11.0585 4.67467 10.9409 4.55703 10.9114C4.43938 10.882 4.32173 10.9703 4.29232 11.0879C4.26291 11.235 3.96879 11.3526 3.90997 11.0879C3.90997 11.0291 3.90997 10.9703 3.96879 10.9114C4.05703 10.8232 4.05703 10.6762 3.96879 10.5879C3.88056 10.4997 3.7335 10.4997 3.64526 10.5879C3.61585 10.6173 3.52762 10.6467 3.46879 10.6173C3.17468 10.5585 3.29232 10.2056 3.4982 10.2056C3.61585 10.2056 3.70409 10.0879 3.70409 9.97027C3.70409 9.85262 3.58644 9.76439 3.46879 9.76439C3.05703 9.82321 2.76291 10.3232 2.93938 10.7056ZM2.96879 2.49968C3.05703 2.44086 3.08644 2.2938 3.02762 2.20556L2.64526 1.67615C2.58644 1.58792 2.43938 1.55851 2.35115 1.61733C2.26291 1.67615 2.2335 1.82321 2.29232 1.91145L2.64526 2.44086C2.7335 2.55851 2.85115 2.58792 2.96879 2.49968ZM4.08644 2.08792C4.20409 2.05851 4.26291 1.94086 4.2335 1.82321L3.93938 0.646741C3.90997 0.529094 3.79232 0.470271 3.67468 0.499683C3.55703 0.529094 3.4982 0.646741 3.52762 0.764388L3.82173 1.94086C3.85115 2.05851 3.96879 2.11733 4.08644 2.08792ZM5.55703 1.88204L5.79232 1.14674C5.82173 1.02909 5.76291 0.911447 5.64526 0.882036C5.52762 0.852624 5.40997 0.911447 5.38056 1.02909L5.14526 1.76439C5.11585 1.88204 5.17467 1.99968 5.29232 2.02909C5.38056 2.05851 5.52762 1.99968 5.55703 1.88204Z" fill="#85818B"/>
</svg>
