<svg width="24" height="24" viewBox="0 0 24 24" fill="none" xmlns="http://www.w3.org/2000/svg">
<path d="M13.4977 21V13.5C13.4977 13.3011 13.5767 13.1103 13.7173 12.9697C13.858 12.829 14.0488 12.75 14.2477 12.75H17.2477C17.4466 12.75 17.6373 12.829 17.778 12.9697C17.9187 13.1103 17.9977 13.3011 17.9977 13.5V21M13.4977 21H2.35767M13.4977 21H17.9977M17.9977 21H21.6377M20.2477 21V9.349M20.2477 9.349C19.6478 9.6951 18.9466 9.82304 18.2631 9.71113C17.5796 9.59922 16.9559 9.25435 16.4977 8.735C15.9477 9.357 15.1437 9.75 14.2477 9.75C13.8219 9.75041 13.401 9.66 13.013 9.48479C12.625 9.30959 12.2789 9.05363 11.9977 8.734C11.4477 9.357 10.6437 9.75 9.74767 9.75C9.32195 9.75041 8.90104 9.66 8.51304 9.48479C8.12504 9.30959 7.77888 9.05363 7.49767 8.734C7.03959 9.25351 6.41591 9.59858 5.73242 9.71067C5.04892 9.82276 4.34769 9.69498 3.74767 9.349M20.2477 9.349C20.6463 9.11891 20.9866 8.80019 21.2423 8.41751C21.498 8.03484 21.6622 7.59846 21.7222 7.14215C21.7823 6.68584 21.7365 6.22184 21.5885 5.78605C21.4405 5.35026 21.1942 4.95436 20.8687 4.629L19.6787 3.44C19.3976 3.15862 19.0164 3.00035 18.6187 3H5.37567C4.97812 3.00008 4.59687 3.15798 4.31567 3.439L3.12667 4.629C2.80191 4.95474 2.55629 5.3507 2.40874 5.78637C2.26119 6.22204 2.21567 6.68577 2.27567 7.14182C2.33567 7.59786 2.49959 8.03403 2.75481 8.41671C3.01002 8.79939 3.34971 9.11835 3.74767 9.349M3.74767 21V9.349M6.74767 18H10.4977C10.6966 18 10.8873 17.921 11.028 17.7803C11.1687 17.6397 11.2477 17.4489 11.2477 17.25V13.5C11.2477 13.3011 11.1687 13.1103 11.028 12.9697C10.8873 12.829 10.6966 12.75 10.4977 12.75H6.74767C6.54876 12.75 6.35799 12.829 6.21734 12.9697C6.07669 13.1103 5.99767 13.3011 5.99767 13.5V17.25C5.99767 17.664 6.33367 18 6.74767 18Z" stroke="#232123" stroke-width="1.75" stroke-linecap="round" stroke-linejoin="round"/>
</svg>
