<svg width="53" height="53" viewBox="0 0 53 53" fill="none" xmlns="http://www.w3.org/2000/svg">
<path d="M50.313 21.2152C47.8744 19.2801 46.6309 16.2784 46.9871 13.1851C47.2199 11.1616 46.5276 9.17527 45.0878 7.73577C43.6474 6.29555 41.6612 5.60329 39.6381 5.83643C36.5437 6.19205 33.5433 4.94935 31.6081 2.51066C30.3423 0.91502 28.4484 0 26.4118 0C24.3752 0 22.4812 0.91502 21.2152 2.51049C19.2801 4.94899 16.2795 6.19205 13.1858 5.83661C11.1624 5.60293 9.17599 6.29555 7.73595 7.73559C6.29573 9.17527 5.60347 11.1616 5.83625 13.1854C6.19241 16.2782 4.94917 19.2799 2.50995 21.2154C0.91502 22.4814 0 24.3754 0 26.4117C0 28.448 0.914841 30.342 2.51031 31.6083C4.94917 33.5436 6.19241 36.5451 5.83625 39.6385C5.60347 41.6619 6.29573 43.6483 7.73559 45.0878C9.17599 46.528 11.1638 47.2206 13.1852 46.9871C16.2784 46.6311 19.2801 47.8742 21.2152 50.3129C22.481 51.9083 24.375 52.8235 26.4118 52.8235C28.4484 52.8235 30.3423 51.9085 31.6083 50.313C33.5436 47.8745 36.5442 46.6316 39.6377 46.9869C41.6614 47.2195 43.6475 46.528 45.0876 45.0879C46.5278 43.6483 47.2201 41.6619 46.9873 39.6383C46.6311 36.5453 47.8745 33.5435 50.3136 31.6081C51.9085 30.3421 52.8235 28.4482 52.8235 26.4117C52.8235 24.3752 51.9083 22.4814 50.313 21.2152Z" fill="#340A43"/>
<g clip-path="url(#clip0_5696_5723)">
<path d="M30.4723 21.6322C28.1382 18.1983 25.0209 16.3733 23.3884 17.4915C23.2086 17.6181 23.0524 17.7752 22.9268 17.9557C22.9268 17.9689 19.1475 25.6172 19.1475 25.6172L17.0376 27.0467C16.7137 27.2666 16.4363 27.5481 16.2212 27.8752C16.0062 28.2023 15.8576 28.5686 15.7842 28.9531C15.7107 29.3376 15.7137 29.7328 15.793 30.1162C15.8723 30.4996 16.0264 30.8635 16.2464 31.1873L16.3413 31.3271C16.786 31.9749 17.4682 32.4213 18.2399 32.5694C19.0116 32.7176 19.8106 32.5555 20.4635 32.1183L23.8525 37.1109C24.351 37.7254 25.3084 38.3372 26.4899 37.6172C26.6992 37.4815 26.8778 37.3034 27.014 37.0945C27.1503 36.8855 27.2413 36.6503 27.2811 36.404C27.3288 36.1591 27.3275 35.9071 27.2773 35.6627C27.227 35.4182 27.1288 35.1861 26.9884 34.9799L24.0029 30.5755C24.0029 30.5755 31.0604 30.0137 31.0868 30.0032C31.3072 29.9571 31.5161 29.8674 31.7013 29.7394C32.54 29.1698 32.8407 27.975 32.5506 26.3742C32.2895 24.8999 31.5484 23.2304 30.4723 21.6322ZM17.1088 30.8076L17.0139 30.6678C16.8621 30.4443 16.7558 30.1931 16.7012 29.9285C16.6466 29.6639 16.6448 29.3912 16.6957 29.1259C16.7467 28.8606 16.8495 28.6079 16.9982 28.3824C17.1469 28.1569 17.3386 27.9629 17.5624 27.8115L19.3848 26.572L21.7901 30.1139L19.9677 31.3535C19.7442 31.5055 19.4929 31.6119 19.2282 31.6668C18.9635 31.7216 18.6906 31.7237 18.4251 31.673C18.1596 31.6223 17.9067 31.5198 17.6808 31.3713C17.455 31.2228 17.2606 31.0312 17.1088 30.8076ZM26.2288 35.4994C26.3729 35.7139 26.4261 35.9768 26.3767 36.2305C26.3272 36.4841 26.1792 36.7078 25.9651 36.8524C25.7502 36.9967 25.4869 37.0499 25.2328 37.0005C24.9787 36.9511 24.7546 36.803 24.6095 36.5887L21.231 31.612L22.5892 30.6889L22.9479 30.6599L26.2288 35.4994ZM22.6631 29.7553L20.0415 25.8942L22.5418 20.7961C22.7844 22.2282 23.4939 23.9293 24.6279 25.5988C25.762 27.2682 27.0807 28.5553 28.3202 29.3095L22.6631 29.7553ZM30.4433 29.1408C29.1826 29.059 27.1308 27.6375 25.3928 25.0766C23.6547 22.5157 23.0903 20.092 23.478 18.8867C23.548 18.6604 23.6878 18.4621 23.8772 18.32C24.0667 18.1779 24.2962 18.0993 24.533 18.0955C25.7831 18.0955 27.9114 19.5249 29.6996 22.1597C30.707 23.6419 31.4402 25.1926 31.6407 26.5482C32.0336 29.1408 30.4433 29.1408 30.4433 29.1408Z" fill="#C6EB75"/>
<path d="M27.1766 21.73C26.8536 21.6666 26.5211 21.6682 26.1987 21.7348C25.8763 21.8013 25.5704 21.9315 25.2988 22.1177C25.2488 22.1524 25.2061 22.1965 25.1731 22.2477C25.1401 22.2988 25.1175 22.356 25.1066 22.4158C25.0957 22.4757 25.0967 22.5372 25.1096 22.5966C25.1224 22.6561 25.1468 22.7125 25.1815 22.7626C25.2161 22.8126 25.2603 22.8553 25.3114 22.8883C25.3626 22.9213 25.4197 22.9439 25.4796 22.9548C25.5395 22.9657 25.6009 22.9647 25.6604 22.9518C25.7199 22.939 25.7763 22.9146 25.8263 22.8799C25.9983 22.7632 26.1915 22.6815 26.3951 22.6395C26.5986 22.5974 26.8084 22.5959 27.0126 22.635C27.2167 22.674 27.4111 22.7529 27.5848 22.8671C27.7584 22.9813 27.9078 23.1286 28.0246 23.3006C28.1413 23.4725 28.223 23.6658 28.265 23.8693C28.307 24.0729 28.3086 24.2827 28.2695 24.4868C28.2304 24.691 28.1516 24.8854 28.0373 25.059C27.9231 25.2327 27.7759 25.3821 27.6039 25.4988C27.5228 25.5548 27.4618 25.6353 27.4297 25.7285C27.3977 25.8216 27.3963 25.9226 27.4258 26.0167C27.4552 26.1107 27.514 26.1928 27.5935 26.251C27.673 26.3092 27.7691 26.3405 27.8676 26.3401C27.9616 26.3419 28.0539 26.3142 28.1314 26.261C28.5416 25.9831 28.8601 25.5898 29.0465 25.1307C29.233 24.6717 29.279 24.1676 29.1787 23.6824C29.0785 23.1972 28.8364 22.7526 28.4833 22.4051C28.1302 22.0575 27.6819 21.8226 27.1951 21.73H27.1766ZM31.043 18.4228H31.0879C31.202 18.4227 31.3121 18.3804 31.3969 18.3039C31.4816 18.2274 31.535 18.1223 31.5468 18.0087L31.9028 14.5485C31.9109 14.4873 31.9066 14.4251 31.8903 14.3656C31.8739 14.3061 31.8458 14.2505 31.8076 14.202C31.7694 14.1536 31.7218 14.1133 31.6677 14.0835C31.6136 14.0538 31.5541 14.0352 31.4927 14.0288C31.4314 14.0225 31.3693 14.0285 31.3103 14.0465C31.2513 14.0646 31.1965 14.0943 31.1491 14.1339C31.1018 14.1735 31.0629 14.2222 31.0347 14.2771C31.0065 14.332 30.9896 14.392 30.985 14.4536L30.6316 17.9164C30.6191 18.0381 30.6553 18.1598 30.7325 18.2548C30.8096 18.3497 30.9213 18.4101 31.043 18.4228ZM37.0087 17.7107C36.941 17.6085 36.8355 17.5373 36.7155 17.5126C36.5954 17.4879 36.4704 17.5117 36.3679 17.5788L33.1529 19.6887C33.0694 19.7438 33.0061 19.8246 32.9725 19.9188C32.9389 20.013 32.9368 20.1156 32.9666 20.2111C32.9963 20.3067 33.0563 20.3899 33.1375 20.4484C33.2187 20.5068 33.3166 20.5374 33.4166 20.5353C33.5099 20.5375 33.6018 20.5117 33.6804 20.4615L36.8953 18.3516C36.9951 18.2814 37.063 18.1746 37.0842 18.0545C37.1055 17.9344 37.0783 17.8108 37.0087 17.7107ZM37.9925 23.3441L34.2527 22.6716C34.132 22.6499 34.0077 22.677 33.907 22.747C33.8064 22.817 33.7377 22.9241 33.716 23.0448C33.6943 23.1654 33.7214 23.2897 33.7914 23.3904C33.8614 23.4911 33.9685 23.5598 34.0892 23.5815L37.8263 24.254H37.9081C38.0257 24.2574 38.1401 24.2158 38.2281 24.1377C38.316 24.0596 38.3708 23.9508 38.3813 23.8336C38.3917 23.7164 38.357 23.5997 38.2843 23.5072C38.2115 23.4148 38.1062 23.3536 37.9898 23.3362L37.9925 23.3441Z" fill="#C6EB75"/>
</g>
<defs>
<clipPath id="clip0_5696_5723">
<rect width="24" height="24" fill="white" transform="translate(15 14)"/>
</clipPath>
</defs>
</svg>
