<svg width="24" height="24" viewBox="0 0 24 24" fill="none" xmlns="http://www.w3.org/2000/svg">
<g clip-path="url(#clip0_5696_5682)">
<path fill-rule="evenodd" clip-rule="evenodd" d="M7.91536 3.83933C7.70564 4.02986 7.48336 4.57041 7.76545 5.69656L7.76693 5.70394C8.11401 7.14689 9.16114 9.04546 10.7828 10.868C12.4185 12.6934 14.1797 13.9451 15.5636 14.4421L15.5717 14.4451L15.5798 14.448C16.5634 14.8232 17.1106 14.7353 17.361 14.5839L17.4444 14.51C17.567 14.4008 17.6933 14.1896 17.7206 13.7708C17.7479 13.347 17.666 12.7813 17.437 12.0975C16.9814 10.7336 16.0015 9.07426 14.5762 7.48362C13.1495 5.89225 11.6121 4.73213 10.3102 4.12364C9.65738 3.8194 9.10502 3.67318 8.68114 3.65103C8.26539 3.63035 8.04016 3.73004 7.91536 3.83933ZM11.0907 2.45103C12.6688 3.18801 14.399 4.52019 15.9513 6.25187C17.5042 7.9843 18.6348 9.85776 19.1879 11.5119C19.4641 12.3375 19.6111 13.152 19.5631 13.8897C19.5247 14.4879 19.3526 15.0779 18.9804 15.5587V15.6244L18.674 15.8991C17.6711 16.8 16.2119 16.6634 14.93 16.1767C13.1658 15.5402 11.1653 14.0611 9.40631 12.099L9.40483 12.0968C7.65616 10.131 6.41408 7.96953 5.97322 6.14037C5.64091 4.80893 5.68891 3.35712 6.68361 2.46433L6.68731 2.46063C7.27733 1.93633 8.0313 1.77018 8.77493 1.80784C9.51265 1.84476 10.3035 2.08402 11.0907 2.45103Z" fill="#4F4D4F"/>
<path fill-rule="evenodd" clip-rule="evenodd" d="M7.28167 2.89853C7.7469 3.10677 7.95589 3.65175 7.74764 4.11772L1.97586 17.0533L1.97512 17.0548C1.49512 18.1255 2.51419 19.2916 3.6625 18.9349L3.66397 18.9341L17.1748 14.6644C17.2904 14.6279 17.412 14.6145 17.5328 14.625C17.6536 14.6355 17.7711 14.6697 17.8786 14.7256C17.9862 14.7815 18.0817 14.8581 18.1597 14.9509C18.2376 15.0437 18.2965 15.151 18.3331 15.2666C18.3696 15.3822 18.383 15.5038 18.3725 15.6246C18.3619 15.7454 18.3278 15.8629 18.2718 15.9704C18.2159 16.078 18.1394 16.1735 18.0465 16.2515C17.9537 16.3294 17.8464 16.3883 17.7308 16.4249L4.21708 20.6954L4.21338 20.6968C1.57266 21.5195 -0.852433 18.8477 0.289961 16.3001L6.06174 3.36523C6.11115 3.25453 6.18188 3.15465 6.26989 3.07128C6.35789 2.98791 6.46146 2.9227 6.57468 2.87936C6.68789 2.83602 6.80853 2.81541 6.92971 2.8187C7.05089 2.82199 7.17098 2.84911 7.28167 2.89853Z" fill="#4F4D4F"/>
<path fill-rule="evenodd" clip-rule="evenodd" d="M11.344 16.6449C11.5776 16.5719 11.8307 16.5946 12.0476 16.7082C12.2644 16.8217 12.4273 17.0168 12.5004 17.2504L13.1524 19.3284C13.662 20.9457 12.7529 22.6958 11.1342 23.2068L9.05399 23.8589C7.43677 24.3684 5.68663 23.4594 5.17635 21.8407L4.52356 19.759C4.48461 19.6426 4.46926 19.5197 4.47839 19.3973C4.48752 19.2749 4.52096 19.1556 4.57674 19.0463C4.63252 18.9371 4.70953 18.84 4.80327 18.7608C4.89701 18.6816 5.00559 18.6219 5.12267 18.5852C5.23975 18.5485 5.36297 18.5355 5.48513 18.547C5.6073 18.5584 5.72595 18.5941 5.83415 18.652C5.94236 18.7098 6.03794 18.7887 6.11531 18.8839C6.19269 18.9791 6.2503 19.0888 6.28478 19.2066L6.93684 21.2854C7.03941 21.5982 7.2604 21.8583 7.55247 22.0102C7.84455 22.162 8.18446 22.1934 8.49941 22.0977L10.5789 21.4456C10.8915 21.343 11.1516 21.1222 11.3034 20.8302C11.4552 20.5383 11.4867 20.1986 11.3912 19.8838L10.7392 17.8021C10.666 17.5686 10.6886 17.3157 10.8019 17.0988C10.9151 16.882 11.1098 16.719 11.3432 16.6456L11.344 16.6449ZM22.6689 1.41125C22.7552 1.49649 22.8238 1.59787 22.8708 1.70962C22.9178 1.82136 22.9424 1.94128 22.9431 2.06252C22.9438 2.18376 22.9206 2.30395 22.8748 2.41622C22.829 2.52849 22.7616 2.63064 22.6763 2.71685L21.593 3.81198C21.5078 3.89819 21.4064 3.96677 21.2946 4.0138C21.1829 4.06082 21.063 4.08538 20.9417 4.08607C20.6969 4.08745 20.4615 3.99152 20.2874 3.81936C20.1133 3.64721 20.0147 3.41294 20.0133 3.1681C20.0119 2.92325 20.1079 2.68788 20.28 2.51377L21.3633 1.41864C21.4486 1.33241 21.55 1.26382 21.6617 1.21678C21.7734 1.16974 21.8934 1.14518 22.0146 1.14449C22.1358 1.14381 22.256 1.16701 22.3683 1.21278C22.4806 1.25856 22.5827 1.326 22.6689 1.41125ZM16.8144 0.0827686C16.9248 0.132975 17.0242 0.204439 17.107 0.293076C17.1897 0.381713 17.2542 0.485787 17.2967 0.599352C17.3392 0.712916 17.359 0.833745 17.3548 0.954935C17.3506 1.07613 17.3226 1.1953 17.2723 1.30565L16.7672 2.41334C16.718 2.52524 16.6471 2.62626 16.5585 2.71053C16.47 2.7948 16.3655 2.86064 16.2513 2.90424C16.1371 2.94783 16.0154 2.96831 15.8932 2.96448C15.7711 2.96065 15.6509 2.93259 15.5396 2.88193C15.4284 2.83126 15.3283 2.75901 15.2452 2.66936C15.1621 2.57971 15.0976 2.47445 15.0555 2.35968C15.0134 2.24492 14.9946 2.12293 15 2.00081C15.0054 1.87869 15.0351 1.75887 15.0872 1.6483L15.5923 0.540612C15.6937 0.317874 15.8794 0.144521 16.1086 0.0586657C16.3378 -0.02719 16.5917 -0.0185204 16.8144 0.0827686ZM23.8918 7.13356C23.949 7.24043 23.9846 7.35752 23.9966 7.47815C24.0086 7.59877 23.9967 7.72058 23.9615 7.8366C23.9264 7.95262 23.8688 8.0606 23.792 8.15436C23.7151 8.24811 23.6206 8.32582 23.5137 8.38303L22.4799 8.93687C22.2641 9.05243 22.0112 9.07751 21.7768 9.0066C21.5425 8.9357 21.346 8.77461 21.2304 8.55878C21.1149 8.34296 21.0898 8.09007 21.1607 7.85574C21.2316 7.62142 21.3927 7.42487 21.6085 7.30931L22.6423 6.75547C22.7492 6.69825 22.8663 6.66265 22.9869 6.65068C23.1076 6.63872 23.2294 6.65063 23.3454 6.68574C23.4614 6.72085 23.5694 6.77847 23.6631 6.85531C23.7569 6.93214 23.8346 7.02669 23.8918 7.13356Z" fill="#4F4D4F"/>
</g>
<defs>
<clipPath id="clip0_5696_5682">
<rect width="24" height="24" fill="white"/>
</clipPath>
</defs>
</svg>
